<svg xmlns="http://www.w3.org/2000/svg" width="128" height="128" viewBox="0 0 128 128">
  <g fill="rgba(0, 0, 0, 0.1)">
    <path d="M111.84 16.33c-9.05-9-22.91-9-47.84-9s-38.79 0-47.84 9S7.11 39.16 7.11 64s0 38.65 9.05 47.67 22.91 9 47.84 9 38.79 0 47.84-9 9.05-22.83 9.05-47.67 0-38.65-9.05-47.67zM94 94.09A42.54 42.54 0 1 1 94 34a42.68 42.68 0 0 1 0 60.09z"/>
    <path d="M84 42.89a7.07 7.07 0 0 0-4.88 10.28 11.84 11.84 0 0 1 1.2 5.28c0 .24-.06.7-.11 1.16a11.34 11.34 0 0 1-11.92 10.08A11.13 11.13 0 0 1 59 63.94c-1.45-2.42-2.84-4.89-4.26-7.34-2-3.4-3.91-6.81-5.89-10.19a6.79 6.79 0 0 0-6.51-3.65 7.06 7.06 0 0 0-5.76 10.7q4 7 8.05 14c4.42 7.65 8.81 15.32 13.26 23a6.72 6.72 0 0 0 6.67 3.53 7 7 0 0 0 5.8-3.82q10.49-18.36 21.05-36.62a7.36 7.36 0 0 0 1-4.77A7.08 7.08 0 0 0 84 42.89z"/>
  </g>
</svg>
